<svg version="1.1" id="Layer_1" xmlns="http://www.w3.org/2000/svg" xmlns:xlink="http://www.w3.org/1999/xlink" x="0px" y="0px"
	 width="100%" viewBox="0 0 225 225" enable-background="new 0 0 225 225" xml:space="preserve">
<path fill="#FEFEFE" opacity="1.000000" stroke="none" 
	d="
M134.000000,226.000000 
	C89.333336,226.000000 45.166672,226.000000 1.000004,226.000000 
	C1.000000,152.333344 1.030416,78.666626 0.903707,5.000186 
	C0.897817,1.575734 1.575576,0.897622 5.000148,0.903650 
	C77.333252,1.030972 149.666702,1.030969 221.999802,0.903658 
	C225.424255,0.897630 226.102371,1.575540 226.096344,5.000135 
	C225.969025,77.333244 225.969055,149.666687 226.096359,221.999786 
	C226.102386,225.424210 225.427155,226.120499 221.999451,226.099960 
	C192.833801,225.925232 163.666687,226.000000 134.000000,226.000000 
z"/>
<path fill="#08021B" opacity="1.000000" stroke="none" 
	d="
M124.941208,81.330658 
	C123.707703,78.688644 122.862206,76.210602 122.069382,73.360321 
	C122.523354,72.488869 122.538704,71.953926 122.010880,71.267075 
	C121.751999,71.141487 121.859856,71.133896 121.830833,71.179504 
	C121.404068,68.963310 120.517715,66.806061 120.002823,64.357033 
	C119.644547,64.221413 119.793365,64.147354 119.746361,64.215897 
	C119.554909,63.356079 119.544601,62.412373 119.087250,61.289822 
	C118.795097,61.093266 118.895676,61.105026 118.869232,61.148209 
	C118.300575,58.944557 117.611160,56.731762 116.920807,54.295715 
	C112.819984,50.898006 110.704178,51.449547 109.332321,56.060703 
	C107.715195,61.496284 106.117905,66.937759 104.305466,72.690620 
	C102.665459,74.235191 101.015610,74.163406 99.377350,73.655418 
	C89.057053,70.455299 78.479401,68.130028 67.941444,64.267685 
	C67.810143,62.753674 68.022858,61.474522 68.562126,59.981850 
	C70.319397,57.136852 70.959984,54.246864 71.661644,51.041161 
	C71.686394,50.713570 71.792740,50.884876 71.712318,50.824081 
	C73.105583,47.994045 73.497665,44.837540 74.702896,41.599880 
	C74.634941,41.203251 74.670677,41.128242 74.677589,41.087280 
	C75.831726,40.483379 75.393501,39.356480 75.661255,38.096130 
	C75.718185,37.731808 75.965111,38.014557 75.837151,37.875984 
	C75.943153,37.612976 76.177116,37.488533 76.723877,37.117481 
	C79.334862,34.221642 82.118217,33.317944 85.553589,34.302444 
	C108.430199,40.858360 131.377014,47.176041 154.005890,54.568546 
	C154.642639,54.776562 155.224716,55.101170 156.187378,55.293411 
	C156.566360,55.164944 156.760025,55.418243 156.759796,55.577671 
	C156.231308,56.311996 156.505096,56.934647 156.919785,57.733093 
	C157.187912,57.916466 157.091873,57.905537 157.115784,57.863541 
	C157.743881,59.003502 157.245560,60.354713 158.089935,61.611519 
	C158.466583,61.665421 158.285629,62.048237 158.361847,61.850922 
	C158.383957,62.627697 158.447449,63.592316 159.010956,64.674850 
	C159.351089,64.805649 159.224701,64.839821 159.250290,64.779572 
	C159.447861,65.640137 159.471481,66.577370 159.825958,67.758362 
	C163.208710,75.179321 164.690903,82.881065 167.287292,90.632591 
	C165.584534,92.491791 163.608566,92.005318 161.646072,91.654053 
	C156.241653,90.686722 151.035248,88.933235 145.879059,87.170364 
	C139.126938,84.861862 132.167831,83.420830 124.941208,81.330658 
z"/>
<path fill="#050218" opacity="1.000000" stroke="none" 
	d="
M156.472488,54.816624 
	C155.209641,55.996391 153.808838,56.115055 152.287659,55.598465 
	C130.255798,48.116432 107.733368,42.278732 85.465691,35.588512 
	C81.980621,34.541443 79.837112,35.618378 77.327911,37.930649 
	C75.693764,34.529457 78.462868,31.770082 78.674789,28.157822 
	C78.765526,27.758718 78.847832,27.860476 78.783737,27.847267 
	C79.433525,27.637690 79.501389,27.099874 79.270630,26.245117 
	C80.345757,20.816648 82.261246,16.111078 87.991982,13.862295 
	C101.741066,13.076159 115.172897,13.728096 128.597305,13.517675 
	C131.084686,13.478687 133.573135,13.564593 136.520370,13.309318 
	C142.264709,14.240478 145.204163,17.834982 146.716705,22.676910 
	C150.019119,33.248497 153.167374,43.868240 156.472488,54.816624 
z"/>
<path fill="#0E0420" opacity="1.000000" stroke="none" 
	d="
M67.369675,64.301910 
	C75.493660,64.070251 82.392891,68.207184 89.984039,69.478325 
	C94.531128,70.239746 98.602539,72.750328 103.687721,73.002968 
	C101.247185,87.174660 95.977425,100.663780 92.380119,114.623810 
	C92.174545,115.421555 92.007820,116.229317 91.540558,117.323471 
	C87.121727,113.025658 81.304832,111.999054 75.788010,110.393608 
	C69.125092,108.454643 62.302200,107.057167 55.572479,104.150169 
	C59.251743,90.757561 63.196835,77.664284 67.369675,64.301910 
z"/>
<path fill="#130525" opacity="1.000000" stroke="none" 
	d="
M55.151413,104.160294 
	C66.544975,106.072639 77.554283,109.111702 88.280365,113.145660 
	C89.926811,113.764870 91.183334,114.795815 91.192490,117.205017 
	C89.571716,123.669403 87.813187,129.705750 86.249115,135.792053 
	C85.852287,137.336227 85.203979,137.881775 83.668655,138.183365 
	C69.965454,140.875320 56.762806,145.124481 44.157230,151.175995 
	C43.329868,151.573181 42.506954,152.427933 41.531528,151.331024 
	C40.488777,150.158432 41.418835,149.197739 41.742962,148.133102 
	C46.172878,133.582352 50.581963,119.025269 55.151413,104.160294 
z"/>
<path fill="#FF5D05" opacity="1.000000" stroke="none" 
	d="
M94.156921,165.792236 
	C94.832695,165.874649 95.179008,165.888641 95.768051,166.004303 
	C108.575188,172.404770 121.471207,178.024887 133.903046,184.591278 
	C135.992691,185.695007 138.757996,186.385696 138.305710,190.026764 
	C136.295349,192.598816 133.677734,193.772079 131.328629,195.291397 
	C119.894234,202.686737 118.267540,206.302841 120.319969,220.114059 
	C113.610901,218.349213 107.624092,210.535049 106.864090,202.447906 
	C106.552841,199.135986 106.401253,195.809357 106.149429,192.491516 
	C105.801964,187.913361 104.023933,184.507996 98.992706,183.712204 
	C94.161896,182.948120 90.216148,184.973236 87.989929,189.495361 
	C87.482224,190.526688 87.120796,191.630005 86.557426,193.036179 
	C77.198486,182.114960 76.038803,169.795486 78.922531,155.845840 
	C82.615318,160.262436 86.843170,162.716385 91.747070,164.752838 
	C92.485336,165.544968 93.206932,165.508621 94.156921,165.792236 
z"/>
<path fill="#0E0420" opacity="1.000000" stroke="none" 
	d="
M124.653915,81.551270 
	C129.474899,80.579391 134.101944,81.944778 138.692932,83.391434 
	C147.857346,86.279221 156.848343,89.786125 166.906326,91.017014 
	C170.672653,101.775505 174.000565,112.528183 177.436371,123.678566 
	C175.347214,125.482040 173.122757,124.909271 170.858109,124.237434 
	C161.803223,121.551178 152.745956,118.872986 143.657715,116.300156 
	C138.557159,114.856216 138.570816,114.823830 137.854309,119.927063 
	C137.784790,120.422279 137.511642,120.853577 136.850037,121.337440 
	C132.561722,108.249443 128.658173,95.092644 124.653915,81.551270 
z"/>
<path fill="#110523" opacity="1.000000" stroke="none" 
	d="
M136.474518,121.407112 
	C137.012131,119.964294 137.118820,118.529411 136.528778,117.056908 
	C136.026657,115.803879 135.548874,114.353188 136.841629,113.426514 
	C138.020203,112.581680 139.316574,113.397118 140.598923,113.780403 
	C152.570023,117.358505 164.399704,121.440681 177.098022,124.053085 
	C177.751205,124.764977 177.958176,125.453682 178.135757,126.414200 
	C178.567490,127.582359 178.416718,128.586151 178.871277,129.778076 
	C179.136719,130.025879 179.233871,130.142075 179.217102,130.215912 
	C179.339554,131.388641 179.447205,132.492538 180.112213,133.715927 
	C182.408813,139.954483 184.315445,146.046921 186.415634,152.757812 
	C179.258133,149.809601 172.777878,146.857788 166.095093,144.473694 
	C160.355331,142.425995 154.476074,140.394104 148.488678,139.524429 
	C142.838394,138.703690 139.613602,136.546417 139.164017,130.368210 
	C139.534470,129.465393 139.546219,128.921936 138.890732,128.335556 
	C138.592148,128.313538 138.771393,127.981903 138.698257,128.155579 
	C138.599014,127.368141 138.539856,126.410210 138.025208,125.304398 
	C137.702530,125.143661 137.830994,125.134323 137.802750,125.192200 
	C137.324982,124.009819 137.747757,122.651283 136.866577,121.421791 
	C136.478409,121.426666 136.483749,121.407990 136.474518,121.407112 
z"/>
<path fill="#FF580B" opacity="1.000000" stroke="none" 
	d="
M138.448334,190.228058 
	C138.080795,187.615570 135.832306,186.996399 133.955200,185.969391 
	C122.297836,179.591309 109.774155,174.946030 98.332108,168.141647 
	C97.629868,167.724045 97.004639,167.176941 96.177185,166.398041 
	C104.580956,168.392502 113.299255,168.670166 122.552277,168.079834 
	C130.605118,172.328796 138.502838,175.885483 146.634521,179.747223 
	C145.228561,184.207367 142.230682,187.339111 138.448334,190.228058 
z"/>
<path fill="#FF4C10" opacity="1.000000" stroke="none" 
	d="
M147.107178,179.694199 
	C145.042328,180.148972 143.254608,179.882629 141.696976,178.847351 
	C135.855560,174.964783 128.327713,174.141632 123.181076,168.423172 
	C130.969498,167.192902 138.775726,165.678192 145.746643,161.486984 
	C148.936005,159.569397 149.615891,161.553528 149.867905,163.923492 
	C150.437943,169.284332 149.925873,174.521759 147.107178,179.694199 
z"/>
<path fill="#000000" opacity="1.000000" stroke="none" 
	d="
M136.523453,13.040543 
	C135.920441,14.272516 134.529724,13.993021 133.229202,13.992188 
	C118.604713,13.982817 103.980232,13.955222 88.838715,13.898233 
	C89.607590,12.435555 91.411011,12.756005 92.967873,12.734432 
	C107.334305,12.535361 121.704010,12.157287 136.523453,13.040543 
z"/>
<path fill="#131319" opacity="1.000000" stroke="none" 
	d="
M78.500137,28.010693 
	C79.683792,31.187088 77.247513,33.986008 76.981918,37.588291 
	C76.756889,37.951687 76.544899,37.921474 76.021057,37.814339 
	C76.551041,34.579166 77.392899,31.420918 78.500137,28.010693 
z"/>
<path fill="#131319" opacity="1.000000" stroke="none" 
	d="
M71.401413,50.949169 
	C72.321808,54.227436 71.045776,57.254841 69.085709,59.963318 
	C69.631271,56.907143 70.373856,54.045956 71.401413,50.949169 
z"/>
<path fill="#131319" opacity="1.000000" stroke="none" 
	d="
M74.382156,41.498306 
	C75.343819,44.675907 73.631294,47.550865 71.982544,50.645699 
	C72.464394,47.773312 73.296883,44.783337 74.382156,41.498306 
z"/>
<path fill="#111115" opacity="1.000000" stroke="none" 
	d="
M119.683411,64.598831 
	C121.826607,65.760643 121.896622,68.077316 121.862228,70.817657 
	C120.588814,69.315147 120.164085,67.142853 119.683411,64.598831 
z"/>
<path fill="#111115" opacity="1.000000" stroke="none" 
	d="
M116.643349,54.530602 
	C118.808708,55.670006 118.876099,58.020355 118.893166,60.781036 
	C117.566895,59.288231 117.189293,57.082508 116.643349,54.530602 
z"/>
<path fill="#050218" opacity="1.000000" stroke="none" 
	d="
M158.409317,61.321785 
	C156.556046,61.311161 157.131119,59.813824 157.101151,58.217003 
	C158.234299,58.608559 157.906967,59.941681 158.409317,61.321785 
z"/>
<path fill="#0E0420" opacity="1.000000" stroke="none" 
	d="
M136.540283,121.766174 
	C138.527908,121.691254 137.839508,123.246422 137.838425,124.848778 
	C136.699707,124.456978 137.061600,123.128220 136.540283,121.766174 
z"/>
<path fill="#050218" opacity="1.000000" stroke="none" 
	d="
M159.318817,64.469788 
	C158.049500,64.441010 158.008163,63.472641 158.317017,62.024044 
	C158.720901,62.480381 159.003723,63.307152 159.318817,64.469788 
z"/>
<path fill="#131319" opacity="1.000000" stroke="none" 
	d="
M75.444649,37.967850 
	C75.931030,38.748608 76.120628,39.762390 75.011917,40.848228 
	C74.846703,40.098839 75.008911,39.151367 75.444649,37.967850 
z"/>
<path fill="#0E0420" opacity="1.000000" stroke="none" 
	d="
M180.404877,133.483643 
	C179.092361,133.447357 179.017181,132.342758 179.151611,130.722382 
	C180.216568,130.973755 179.987442,132.147507 180.404877,133.483643 
z"/>
<path fill="#0E0420" opacity="1.000000" stroke="none" 
	d="
M179.148499,129.661560 
	C178.085693,129.453125 178.003113,128.476654 178.083008,127.064102 
	C178.990570,127.341347 179.001282,128.349228 179.148499,129.661560 
z"/>
<path fill="#0E0420" opacity="1.000000" stroke="none" 
	d="
M137.717590,125.486603 
	C138.942627,125.558357 138.998550,126.520836 138.728745,127.957672 
	C138.327637,127.496033 138.030151,126.662788 137.717590,125.486603 
z"/>
<path fill="#050218" opacity="1.000000" stroke="none" 
	d="
M160.148895,67.661774 
	C159.060455,67.412476 158.992859,66.467293 159.200394,65.084000 
	C160.198761,65.360771 159.983459,66.421165 160.148895,67.661774 
z"/>
<path fill="#111115" opacity="1.000000" stroke="none" 
	d="
M118.792992,61.440025 
	C119.931686,61.574242 119.985535,62.525749 119.781784,63.918915 
	C118.788246,63.673145 119.028664,62.643002 118.792992,61.440025 
z"/>
<path fill="#0E0420" opacity="1.000000" stroke="none" 
	d="
M138.612091,128.608734 
	C139.486359,128.343063 139.965637,128.664627 139.309784,129.810059 
	C138.942047,129.624451 138.787048,129.264206 138.612091,128.608734 
z"/>
<path fill="#050218" opacity="1.000000" stroke="none" 
	d="
M157.204041,57.634468 
	C156.489792,57.595787 156.163284,57.089199 156.571655,56.023041 
	C156.913116,56.275555 157.066635,56.814014 157.204041,57.634468 
z"/>
<path fill="#111115" opacity="1.000000" stroke="none" 
	d="
M121.752151,71.459122 
	C122.589134,71.341064 122.980019,71.772797 122.327072,72.814507 
	C121.998810,72.584312 121.875557,72.180534 121.752151,71.459122 
z"/>
<path fill="#FF580B" opacity="1.000000" stroke="none" 
	d="
M94.258987,165.594833 
	C93.806999,165.750305 93.127609,165.639954 92.224731,165.259872 
	C92.678024,165.103104 93.354813,165.216064 94.258987,165.594833 
z"/>
<path fill="#131319" opacity="1.000000" stroke="none" 
	d="
M78.986328,26.292881 
	C79.740799,26.527697 80.025719,27.081383 78.983315,27.776781 
	C78.767120,27.417486 78.814590,27.000914 78.986328,26.292881 
z"/>
</svg>